<?xml version="1.0" encoding="utf-8"?>
<!-- Generator: Adobe Illustrator 25.3.1, SVG Export Plug-In . SVG Version: 6.00 Build 0)  -->
<svg version="1.1" id="Layer_1" xmlns="http://www.w3.org/2000/svg" xmlns:xlink="http://www.w3.org/1999/xlink" x="0px" y="0px"
	 viewBox="0 0 141.43 136" style="enable-background:new 0 0 141.43 136;" xml:space="preserve">
<style type="text/css">
	.st0{fill:#05869A;}
	.st1{fill:#FCFCFC;}
	.st2{fill:#F7F9F9;}
	.st3{fill:#FFFFFF;}
</style>
<g>
	<path class="st0" d="M125.36,77.11c-1.34,6.94-4.04,13.4-7.36,19.58c-4.58,8.53-10.65,15.8-18.63,21.41
		c-0.87,0.61-1.51,0.85-2.5,0.33c-1.63-0.86-3.17-0.44-4.37,0.85c-0.79,0.85-1.27,0.72-2.09,0.02c-2.11-1.81-3.52-1.77-5.65,0.08
		c-0.56,0.48-0.85,0.8-1.62,0.22c-3.62-2.75-7.16-1.16-7.79,3.44c-0.42,3.06-0.42,3.01-3.54,3.05c-1.34,0.02-1.97-0.14-1.95-1.78
		c0.03-2.24-0.62-4.4-2.77-5.67c-1.71-1.01-3.36-0.85-4.75,0.59c-0.73,0.75-1.2,0.89-2.08,0.1c-1.88-1.7-3.3-1.76-5.6-0.46
		c-0.9,0.51-1.65,0.55-2.55-0.06c-1.06-0.71-2.33-1.19-3.53-0.48c-1.02,0.6-1.58,0.43-2.53-0.25c-11.98-8.59-19.43-20.35-24.07-34.1
		c-0.68-2.01-1.51-3.99-1.68-6.15c1.1,0.19,1.63,1.14,2.26,1.85c5.28,5.97,11.72,9.48,19.75,10.39c8.18,0.93,15.36-1.2,21.9-5.94
		c1-0.72,1.39-0.89,2.04,0.39c1.43,2.85,2.97,5.65,5.24,7.99c1.47,1.51,1.53,1.52,2.82-0.28c1.59-2.21,3.17-4.42,4.59-6.75
		c0.7-1.14,1.4-1.56,2.89-0.63c3.58,2.25,7.38,4.11,11.6,5.02c5.25,1.12,10.41,1.01,15.46-0.85c4.75-1.75,9.14-4.1,12.57-7.99
		C122.65,79.66,123.7,78.08,125.36,77.11z"/>
	<path class="st1" d="M125.36,77.11c-1.66,0.96-2.72,2.54-3.94,3.93c-3.43,3.89-7.82,6.24-12.57,7.99
		c-5.05,1.86-10.21,1.97-15.46,0.85c-4.22-0.9-8.02-2.76-11.6-5.02c-1.48-0.93-2.18-0.52-2.89,0.63c-1.42,2.33-3.01,4.54-4.59,6.75
		c-1.29,1.8-1.35,1.79-2.82,0.28c-2.27-2.33-3.81-5.13-5.24-7.99c-0.64-1.29-1.04-1.12-2.04-0.39c-6.54,4.73-13.72,6.86-21.9,5.94
		c-8.03-0.91-14.47-4.43-19.75-10.39c-0.63-0.71-1.15-1.67-2.26-1.85c-1.48-4.53-4.03-8.68-4.54-13.57
		c-0.53-5.08-0.07-9.97,1.72-14.75c0.51-1.37,0.89-2.79,1.32-4.18c0.72-0.06,0.86-0.75,1.29-1.13c1.75-1.57,2.54-3.85,4.3-5.47
		c4.94-4.53,10.49-7.55,17.23-8.36c6.37-0.77,12.41,0.07,18.12,3.06c5.1,2.67,9.18,6.42,12.01,11.46c0.57,1.02,1.13,1.03,1.77,0.12
		c0.42-0.59,0.87-1.18,1.22-1.82c1.68-3.04,4.16-5.33,6.88-7.36c4.16-3.11,8.82-4.88,14.05-5.5c4.8-0.56,9.5-0.27,13.98,1.25
		c6.25,2.12,11.04,6.35,14.84,11.71c0.52,0.73,0.91,1.69,2.06,1.64c0.02,0.18,0.04,0.36,0.07,0.54c0,0.34-0.05,0.7,0.27,0.95
		c0.92,3.25,2.33,6.33,2.75,9.75c0.74,5.99-0.13,11.67-2.68,17.1C126.38,74.53,125.78,75.78,125.36,77.11z M21.1,60.3
		c0.02,13.58,10.97,24.57,24.56,24.65c13.72,0.09,24.83-11,24.82-24.79C70.47,46.35,59.53,35.59,45.52,35.6
		C31.95,35.62,21.08,46.61,21.1,60.3z M124.33,60.41c0.09-13.82-10.8-24.74-24.75-24.82c-13.37-0.07-24.53,10.86-24.66,24.15
		C74.79,73.69,85.73,84.86,99.6,84.94C113.12,85.02,124.24,73.98,124.33,60.41z M72.61,89.62c2-1.99,4.02-5.3,4.79-7.82
		c1.08-3.54-0.26-5.56-3.95-5.85c-0.78-0.06-1.6,0.02-2.38,0.17c-2.89,0.55-3.92,2.18-3.18,5.05
		C68.72,84.39,70.57,87.05,72.61,89.62z"/>
	<path class="st0" d="M126.56,44.93c-1.16,0.05-1.54-0.9-2.06-1.64c-3.8-5.36-8.58-9.6-14.84-11.71c-4.48-1.52-9.17-1.81-13.98-1.25
		c-5.23,0.61-9.89,2.38-14.05,5.5c-2.72,2.03-5.2,4.33-6.88,7.36c-0.35,0.64-0.8,1.22-1.22,1.82c-0.64,0.91-1.2,0.9-1.77-0.12
		c-2.84-5.04-6.91-8.78-12.01-11.46C54.04,30.44,48,29.6,41.63,30.37c-6.74,0.81-12.29,3.84-17.23,8.36
		c-1.76,1.62-2.55,3.89-4.3,5.47c-0.42,0.38-0.57,1.08-1.29,1.13c0.58-4.33,2.23-8.25,4.8-11.72c0.94-1.27,0.79-1.91-0.18-3.01
		C18.77,25.3,15,19.41,12.37,12.84c-0.28-0.71-0.79-1.41-0.42-2.35c8.25,4.86,17.55,5.74,26.7,7.1c7.85,1.17,15.82,1.81,23.37,4.5
		c4.78,1.7,9.06,4.09,10.61,9.73c3.16-8.49,10.64-10.02,17.89-11.67c7.1-1.62,14.36-2.37,21.58-3.28c4.49-0.56,8.79-1.83,13.18-2.74
		c3.05-0.63,5.57-2.32,8.67-3.85c-1.07,3.45-2.48,6.34-4.05,9.16c-2.25,4.03-4.85,7.84-7.94,11.28c-0.93,1.03-1.04,1.72-0.15,2.88
		C124.36,36.95,125.89,40.77,126.56,44.93z"/>
	<path class="st0" d="M131.07,74.68c3.48,6.32,6.32,12.73,3.29,19.99c-1.65,3.95-4.62,6.58-8.64,8.33
		c-2.43,1.06-4.76,2.18-7.94,2.81C124.15,95.95,128.41,85.7,131.07,74.68z"/>
	<path class="st0" d="M15.19,74.17c1.16,4.11,1.85,7.75,3.12,11.25c1.9,5.23,3.97,10.37,6.85,15.15c0.65,1.08,1.22,2.2,1.83,3.3
		c0.25,0.44,0.34,0.88-0.02,1.29c-0.28,0.32-0.58,0.45-1.05,0.24c-2.09-0.94-4.31-1.5-6.36-2.6c-4.39-2.36-7.71-5.8-8.8-10.58
		c-0.82-3.57-0.42-7.42,0.96-11C12.62,78.95,13.37,76.6,15.19,74.17z"/>
	<path class="st2" d="M92.6,124.56c0.01-2.4,1.23-4.34,2.7-4.29c1.45,0.05,2.75,2.11,2.73,4.34c-0.02,2.39-1.24,4.28-2.75,4.25
		C93.75,128.83,92.59,126.98,92.6,124.56z"/>
	<path class="st2" d="M52.43,124.42c0,2.7-1.05,4.42-2.62,4.43c-1.5,0.01-2.7-1.85-2.63-4.29c0.03-1.11,0.21-2.24,0.52-3.31
		c0.35-1.19,2.72-1.3,3.68-0.2C52.25,122.06,52.52,123.27,52.43,124.42z"/>
	<path class="st2" d="M62.48,124.38c0.02-2.32,1.11-4.1,2.55-4.12c1.48-0.03,2.74,1.93,2.74,4.26c0,2.36-1.19,4.3-2.66,4.34
		C63.54,128.89,62.46,127.05,62.48,124.38z"/>
	<path class="st2" d="M85.05,124.61c-0.01-2.51,1.1-4.36,2.62-4.35c1.47,0.01,2.72,2.01,2.71,4.35c-0.01,2.34-1.32,4.32-2.81,4.25
		C86.09,128.8,85.06,127.06,85.05,124.61z"/>
	<path class="st2" d="M60.06,124.54c0,2.48-1.15,4.35-2.64,4.32c-1.45-0.04-2.7-2.09-2.67-4.39c0.03-2.23,1.24-4.15,2.64-4.21
		C58.92,120.2,60.06,122.04,60.06,124.54z"/>
	<path class="st2" d="M82.63,124.55c-0.01,2.55-1.04,4.28-2.59,4.32c-1.54,0.04-2.78-2.01-2.72-4.46c0.06-2.23,1.27-4.1,2.69-4.14
		C81.51,120.22,82.63,122.06,82.63,124.55z"/>
	<path class="st0" d="M126.9,46.41c-0.32-0.25-0.28-0.6-0.27-0.95C126.89,45.74,127,46.04,126.9,46.41z"/>
	<path class="st3" d="M40.23,60.08c1.8,0,4.15,0.69,5.23-0.19c1.17-0.94,0.25-3.39,0.35-5.18c0.06-1.2,0.01-2.41,0.02-3.61
		c0.01-2.44,0.26-2.7,2.61-2.06c4.66,1.28,7.73,4.29,8.62,9.05c0.89,4.74-0.73,8.75-4.74,11.54c-6.76,4.7-16.04,1-17.82-7.03
		c-0.48-2.18-0.32-2.38,1.92-2.38c1.27,0,2.54,0,3.81,0C40.23,60.18,40.23,60.13,40.23,60.08z"/>
	<path class="st3" d="M94.15,60.21c1.54-0.2,4,0.85,5.21-0.41c1.1-1.15,0.25-3.56,0.31-5.42c0.04-1.2,0.16-2.43-0.02-3.6
		c-0.32-2.11,0.75-2.11,2.29-1.83c5.6,1.03,9.66,6.59,9.13,12.56c-0.5,5.57-5.54,10.12-11.29,10.18
		c-5.82,0.06-11.03-4.5-11.61-10.07c-0.12-1.2,0.26-1.51,1.4-1.43C90.98,60.28,92.38,60.21,94.15,60.21z"/>
</g>
</svg>
