<?xml version="1.0" encoding="utf-8"?>
<!-- Generator: Adobe Illustrator 25.3.1, SVG Export Plug-In . SVG Version: 6.00 Build 0)  -->
<svg version="1.1" id="Layer_1" xmlns="http://www.w3.org/2000/svg" xmlns:xlink="http://www.w3.org/1999/xlink" x="0px" y="0px"
	 viewBox="0 0 612 571.45" style="enable-background:new 0 0 612 571.45;" xml:space="preserve">
<style type="text/css">
	.st0{fill:#05869A;}
	.st1{fill:#383B3C;}
</style>
<g>
	<path class="st0" d="M557.69,318.04c-6.4,33.04-19.22,63.76-35.01,93.19c-21.78,40.61-50.69,75.21-88.67,101.9
		c-4.15,2.92-7.2,4.03-11.89,1.57c-7.77-4.08-15.07-2.08-20.8,4.04c-3.78,4.03-6.07,3.41-9.95,0.08c-10.03-8.6-16.73-8.4-26.87,0.37
		c-2.66,2.3-4.06,3.83-7.7,1.07c-17.25-13.08-34.09-5.51-37.08,16.38c-1.99,14.58-2,14.31-16.83,14.52c-6.39,0.09-9.4-0.65-9.3-8.48
		c0.13-10.67-2.95-20.95-13.17-26.97c-8.11-4.78-15.97-4.02-22.59,2.82c-3.47,3.59-5.7,4.26-9.89,0.46
		c-8.94-8.09-15.68-8.38-26.63-2.21c-4.28,2.41-7.84,2.62-12.13-0.27c-5.04-3.4-11.09-5.64-16.82-2.26
		c-4.84,2.86-7.51,2.05-12.06-1.21c-57.04-40.88-92.49-96.84-114.56-162.3c-3.23-9.59-7.19-19-8.01-29.25
		c5.24,0.89,7.73,5.43,10.74,8.83c25.12,28.39,55.77,45.12,93.97,49.45c38.93,4.42,73.11-5.73,104.22-28.25
		c4.74-3.43,6.64-4.25,9.7,1.88c6.79,13.58,14.13,26.9,24.95,38c7,7.18,7.28,7.24,13.44-1.34c7.56-10.53,15.09-21.05,21.87-32.12
		c3.34-5.45,6.68-7.43,13.73-2.99c17.05,10.73,35.12,19.58,55.19,23.88c24.99,5.35,49.56,4.82,73.59-4.03
		c22.62-8.33,43.5-19.53,59.82-38.03C544.76,330.14,549.8,322.61,557.69,318.04z"/>
	<path class="st1" d="M557.69,318.04c-7.89,4.58-12.93,12.1-18.75,18.7c-16.32,18.51-37.21,29.7-59.82,38.03
		c-24.03,8.85-48.6,9.38-73.59,4.03c-20.07-4.3-38.14-13.15-55.19-23.88c-7.05-4.44-10.39-2.46-13.73,2.99
		c-6.78,11.07-14.31,21.59-21.87,32.12c-6.16,8.58-6.44,8.52-13.44,1.34c-10.81-11.1-18.15-24.42-24.95-38
		c-3.07-6.13-4.96-5.31-9.7-1.88c-31.11,22.53-65.29,32.67-104.22,28.25c-38.2-4.33-68.85-21.06-93.97-49.45
		c-3-3.39-5.49-7.94-10.74-8.83c-7.05-21.57-19.18-41.31-21.63-64.58c-2.54-24.16-0.35-47.46,8.21-70.22
		c2.45-6.5,4.22-13.26,6.3-19.9c3.42-0.27,4.11-3.57,6.13-5.39c8.33-7.49,12.07-18.33,20.45-26.02c23.49-21.54,49.93-35.93,82-39.79
		c30.33-3.65,59.07,0.33,86.25,14.58c24.27,12.73,43.69,30.54,57.18,54.53c2.72,4.84,5.36,4.88,8.43,0.55
		c2-2.83,4.12-5.61,5.79-8.64c7.98-14.44,19.82-25.37,32.74-35.04c19.8-14.81,41.98-23.23,66.87-26.15
		c22.86-2.69,45.2-1.28,66.52,5.94c29.76,10.07,52.52,30.23,70.61,55.75c2.47,3.49,4.31,8.03,9.82,7.79
		c0.11,0.85,0.21,1.7,0.32,2.56c-0.02,1.63-0.25,3.31,1.29,4.5c4.38,15.45,11.08,30.12,13.09,46.4
		c3.53,28.51-0.63,55.52-12.74,81.36C562.54,305.72,559.67,311.68,557.69,318.04z M61.51,238c0.1,64.62,52.2,116.91,116.88,117.32
		c65.3,0.41,118.16-52.37,118.11-117.96c-0.05-65.71-52.13-116.96-118.77-116.87C113.13,120.58,61.41,172.87,61.51,238z
		 M552.78,238.56c0.42-65.79-51.39-117.73-117.8-118.1c-63.63-0.36-116.75,51.67-117.34,114.91
		c-0.62,66.36,51.46,119.52,117.45,119.9C499.42,355.64,552.36,303.14,552.78,238.56z M306.62,377.57
		c9.53-9.47,19.12-25.24,22.78-37.22c5.14-16.86-1.25-26.47-18.79-27.85c-3.73-0.29-7.61,0.08-11.3,0.79
		c-13.76,2.62-18.64,10.35-15.12,24.02C288.14,352.65,296.93,365.3,306.62,377.57z"/>
	<path class="st0" d="M563.41,164.87c-5.51,0.23-7.35-4.31-9.82-7.79c-18.09-25.51-40.85-45.68-70.61-55.75
		c-21.33-7.22-43.66-8.62-66.52-5.94c-24.89,2.93-47.06,11.34-66.87,26.15c-12.93,9.67-24.77,20.6-32.74,35.04
		c-1.67,3.02-3.79,5.81-5.79,8.64c-3.07,4.33-5.7,4.29-8.43-0.55c-13.49-23.99-32.91-41.8-57.18-54.53
		c-27.18-14.25-55.92-18.24-86.25-14.58c-32.07,3.86-58.51,18.25-82,39.79c-8.39,7.69-12.13,18.53-20.45,26.02
		c-2.02,1.82-2.71,5.12-6.13,5.39c2.75-20.59,10.61-39.26,22.86-55.78c4.48-6.05,3.74-9.07-0.86-14.31
		c-22.17-25.23-40.1-53.24-52.65-84.5c-1.35-3.36-3.77-6.72-2.01-11.19C57.21,24.13,101.43,28.29,145,34.78
		c37.38,5.57,75.27,8.62,111.2,21.4c22.76,8.1,43.12,19.48,50.47,46.31c15.02-40.43,50.66-47.67,85.16-55.55
		c33.79-7.71,68.36-11.28,102.72-15.59c21.35-2.68,41.82-8.7,62.73-13.04c14.54-3.02,26.5-11.06,41.26-18.31
		c-5.08,16.42-11.8,30.2-19.27,43.61c-10.7,19.2-23.08,37.3-37.77,53.66c-4.41,4.91-4.94,8.17-0.7,13.72
		C552.94,126.89,560.2,145.09,563.41,164.87z"/>
	<path class="st0" d="M584.87,306.43c16.54,30.09,30.09,60.61,15.66,95.12c-7.86,18.8-21.99,31.31-41.13,39.66
		c-11.54,5.03-22.64,10.38-37.81,13.37C551.91,407.69,572.21,358.91,584.87,306.43z"/>
	<path class="st0" d="M33.4,304.04c5.51,19.56,8.79,36.9,14.83,53.52c9.05,24.89,18.88,49.36,32.62,72.11
		c3.09,5.12,5.79,10.48,8.71,15.71c1.17,2.09,1.64,4.19-0.07,6.15c-1.32,1.51-2.77,2.15-5,1.15c-9.93-4.46-20.53-7.14-30.24-12.37
		c-20.87-11.23-36.7-27.62-41.89-50.34c-3.88-16.98-2.01-35.34,4.58-52.34C21.15,326.77,24.74,315.61,33.4,304.04z"/>
	<path class="st1" d="M401.75,543.82c0.04-11.43,5.84-20.66,12.85-20.42c6.91,0.23,13.08,10.04,12.98,20.64
		c-0.11,11.39-5.89,20.35-13.08,20.24C407.23,564.18,401.72,555.33,401.75,543.82z"/>
	<path class="st1" d="M210.59,543.18c0,12.87-5,21.03-12.46,21.08c-7.15,0.05-12.86-8.8-12.5-20.42c0.16-5.28,0.99-10.68,2.47-15.75
		c1.66-5.66,12.97-6.17,17.5-0.95C209.76,531.92,211.02,537.69,210.59,543.18z"/>
	<path class="st1" d="M258.43,542.98c0.08-11.05,5.31-19.5,12.13-19.62c7.03-0.13,13.03,9.21,13.04,20.26
		c0,11.22-5.67,20.47-12.65,20.64C263.5,564.45,258.33,555.67,258.43,542.98z"/>
	<path class="st1" d="M365.84,544.09c-0.07-11.95,5.24-20.76,12.49-20.72c7.01,0.04,12.93,9.55,12.89,20.71
		c-0.04,11.13-6.28,20.56-13.4,20.23C370.81,563.99,365.91,555.72,365.84,544.09z"/>
	<path class="st1" d="M246.94,543.74c0.01,11.8-5.45,20.71-12.58,20.54c-6.89-0.17-12.84-9.94-12.7-20.88
		c0.14-10.61,5.88-19.76,12.58-20.02C241.47,523.1,246.93,531.85,246.94,543.74z"/>
	<path class="st1" d="M354.31,543.78c-0.02,12.16-4.95,20.37-12.32,20.54c-7.31,0.17-13.24-9.56-12.95-21.22
		c0.27-10.62,6.04-19.49,12.81-19.71C348.98,523.17,354.34,531.94,354.31,543.78z"/>
	<path class="st0" d="M565.01,171.93c-1.54-1.18-1.31-2.87-1.29-4.5C564.94,168.7,565.49,170.17,565.01,171.93z"/>
	<path class="st1" d="M152.55,236.95c8.54,0,19.73,3.28,24.91-0.89c5.55-4.47,1.19-16.12,1.65-24.63
		c0.31-5.71,0.05-11.45,0.08-17.18c0.05-11.62,1.23-12.87,12.43-9.79c22.17,6.1,36.78,20.43,41,43.09
		c4.21,22.58-3.45,41.63-22.55,54.92c-32.17,22.39-76.33,4.78-84.79-33.46c-2.29-10.37-1.54-11.3,9.13-11.32
		c6.05-0.01,12.09,0,18.14,0C152.55,237.44,152.55,237.2,152.55,236.95z"/>
	<path class="st1" d="M409.14,237.6c7.34-0.96,19.05,4.07,24.79-1.95c5.23-5.48,1.19-16.96,1.49-25.79
		c0.2-5.72,0.75-11.55-0.1-17.14c-1.53-10.02,3.55-10.05,10.91-8.69c26.66,4.9,45.99,31.34,43.45,59.79
		c-2.36,26.5-26.37,48.16-53.71,48.45c-27.67,0.29-52.52-21.44-55.25-47.94c-0.59-5.72,1.26-7.19,6.67-6.82
		C394.05,237.93,400.75,237.6,409.14,237.6z"/>
</g>
</svg>
